<?xml version="1.0" encoding="iso-8859-1"?>
<!-- Generator: Adobe Illustrator 19.0.0, SVG Export Plug-In . SVG Version: 6.00 Build 0)  -->
<svg xmlns="http://www.w3.org/2000/svg" xmlns:xlink="http://www.w3.org/1999/xlink" version="1.1" id="Layer_1" x="0px" y="0px" viewBox="0 0 496 496" style="enable-background:new 0 0 496 496;" xml:space="preserve" width="512" height="512">
<g>
	<path d="M248,0C111.25,0,0,111.25,0,248s111.25,248,248,248s248-111.25,248-248S384.75,0,248,0z M135.15,117.4h161.18   c8.29,0,15,6.72,15,15c0,8.29-6.71,15-15,15H135.15c-8.28,0-15-6.71-15-15C120.15,124.12,126.87,117.4,135.15,117.4z    M135.15,180.32h161.18c8.29,0,15,6.71,15,15c0,8.28-6.71,15-15,15H135.15c-8.28,0-15-6.72-15-15   C120.15,187.03,126.87,180.32,135.15,180.32z M181.2,336.14h-46.05c-8.28,0-15-6.71-15-15c0-8.28,6.72-15,15-15h46.05   c8.28,0,15,6.72,15,15C196.2,329.43,189.48,336.14,181.2,336.14z M213.48,273.23h-78.33c-8.28,0-15-6.72-15-15s6.72-15,15-15h78.33   c8.29,0,15,6.72,15,15S221.77,273.23,213.48,273.23z M375.85,340c0,41.81-34.01,75.82-75.81,75.82s-75.81-34.01-75.81-75.82   c0-41.8,34.01-75.8,75.81-75.8c17.2,0,33.08,5.76,45.81,15.44V127c0-8.28,6.71-15,15-15c8.28,0,15,6.72,15,15V340z"/>
	<path d="M300.04,294.2c-25.26,0-45.81,20.55-45.81,45.8c0,25.26,20.55,45.82,45.81,45.82s45.81-20.56,45.81-45.82   C345.85,314.75,325.3,294.2,300.04,294.2z"/>
</g>















</svg>
